# File created by Blade
# Date/Time:  Thu Jan 22 18:06:37 2015
#---------------------------------------------------------
:version 1.10
:name HOM
:units
  mass 1.0
  length 1.000000
  angle deg
:documentation
     Acclaim Skeleton File
:root
   axis xyz
   order TX TY TZ RX RY RZ
   position 0.000000 0.000000 0.000000
   orientation 0 0 0
:bonedata
   begin
      id 1
      name RightUpLeg_dum
      direction -1.000000 0.000000 0.000000
      length 4.478084
      axis 0.0 0.0 0.0 xyz
   end
   begin
      id 2
      name LeftUpLeg_dum
      direction 1.000000 0.000000 0.000000
      length 4.478084
      axis 0.0 0.0 0.0 xyz
   end
   begin
      id 3
      name Spine_dum
      direction 0.000000 1.000000 0.000000
      length 6.068208
      axis 0.0 0.0 0.0 xyz
   end
   begin
      id 4
      name RightUpLeg
      direction 0.000000 -1.000000 0.000000
      length 16.405774
      axis 0.0 0.0 0.0 xyz
      dof rx ry rz
   end
   begin
      id 5
      name RightLeg
      direction 0.000000 -1.000000 0.000000
      length 14.644143
      axis 0.0 0.0 0.0 xyz
      dof rx ry rz
   end
   begin
      id 6
      name RightFoot
      direction 0.000000 -0.258819 0.965926
      length 5.806150
      axis 15.0 0.0 0.0 xyz
      dof rx ry rz
   end
   begin
      id 7
      name RightToeBase
      direction 0.000000 0.000000 1.000000
      length 2.952750
      axis 0.0 0.0 0.0 xyz
      dof rx ry rz
   end
   begin
      id 8
      name LeftUpLeg
      direction 0.000000 -1.000000 0.000000
      length 16.405774
      axis 0.0 0.0 0.0 xyz
      dof rx ry rz
   end
   begin
      id 9
      name LeftLeg
      direction 0.000000 -1.000000 0.000000
      length 14.644143
      axis 0.0 0.0 0.0 xyz
      dof rx ry rz
   end
   begin
      id 10
      name LeftFoot
      direction 0.000000 -0.258819 0.965926
      length 5.806150
      axis 15.0 0.0 0.0 xyz
      dof rx ry rz
   end
   begin
      id 11
      name LeftToeBase
      direction 0.000000 0.000000 1.000000
      length 2.952750
      axis 0.0 0.0 0.0 xyz
      dof rx ry rz
   end
   begin
      id 12
      name Spine
      direction 0.000000 1.000000 0.000000
      length 0.000000
      axis 0.0 0.0 0.0 xyz
      dof rx ry rz
   end
   begin
      id 13
      name Spine_dum1
      direction 0.000000 1.000000 0.000000
      length 10.013923
      axis 0.0 0.0 0.0 xyz
   end
   begin
      id 14
      name Spine_dum2
      direction 0.000000 1.000000 0.000000
      length 10.013923
      axis 0.0 0.0 0.0 xyz
   end
   begin
      id 15
      name Spine_dum3
      direction 0.000000 1.000000 0.000000
      length 15.777476
      axis 0.0 0.0 0.0 xyz
   end
   begin
      id 16
      name RightShoulder
      direction -1.000000 0.000000 0.000000
      length 7.190220
      axis 0.0 0.0 90.0 xyz
      dof rx ry rz
   end
   begin
      id 17
      name RightArm
      direction -1.000000 0.000000 0.000000
      length 10.177469
      axis 0.0 0.0 90.0 xyz
      dof rx ry rz
   end
   begin
      id 18
      name RightForeArm
      direction -1.000000 0.000000 0.000000
      length 8.392114
      axis 0.0 0.0 90.0 xyz
      dof ry rz rx
   end
   begin
      id 19
      name RightHand
      direction -1.000000 0.000000 0.000000
      length 0.000000
      axis 0.0 0.0 90.0 xyz
      dof rx ry rz
   end
   begin
      id 20
      name RightHand_dum1
      direction -1.000000 0.000000 0.000000
      length 3.937000
      axis 0.0 0.0 90.0 xyz
   end
   begin
      id 21
      name RightHand_dum2
      direction 0.000000 0.000000 0.000000
      length 0.000000
      axis 0.0 0.0 90.0 xyz
   end
   begin
      id 22
      name RightHandThumb1
      direction 0.000000 0.000000 1.000000
      length 3.937000
      axis 0.0 0.0 90.0 xyz
      dof rx rz ry
   end
   begin
      id 23
      name LeftShoulder
      direction 1.000000 0.000000 0.000000
      length 7.190220
      axis 0.0 0.0 -90.0 xyz
      dof rx ry rz
   end
   begin
      id 24
      name LeftArm
      direction 1.000000 0.000000 0.000000
      length 10.177469
      axis 0.0 0.0 -90.0 xyz
      dof rx ry rz
   end
   begin
      id 25
      name LeftForeArm
      direction 1.000000 0.000000 0.000000
      length 8.392114
      axis 0.0 0.0 -90.0 xyz
      dof ry rz rx
   end
   begin
      id 26
      name LeftHand
      direction 1.000000 0.000000 0.000000
      length 0.000000
      axis 0.0 0.0 -90.0 xyz
      dof rx ry rz
   end
   begin
      id 27
      name LeftHand_dum1
      direction 1.000000 0.000000 0.000000
      length 3.937000
      axis 0.0 0.0 -90.0 xyz
   end
   begin
      id 28
      name LeftHand_dum2
      direction 0.000000 0.000000 0.000000
      length 0.000000
      axis 0.0 0.0 -90.0 xyz
   end
   begin
      id 29
      name LeftHandThumb1
      direction 0.000000 0.000000 1.000000
      length 3.937000
      axis 0.0 0.0 -90.0 xyz
      dof rx rz ry
   end
   begin
      id 30
      name Head
      direction 0.000000 1.000000 0.000000
      length 4.527550
      axis 0.0 0.0 0.0 xyz
      dof rx ry rz
   end
:hierarchy
   begin
      root RightUpLeg_dum LeftUpLeg_dum Spine_dum
      RightUpLeg_dum RightUpLeg
      LeftUpLeg_dum LeftUpLeg
      Spine_dum Spine
      RightUpLeg RightLeg
      RightLeg RightFoot
      RightFoot RightToeBase
      LeftUpLeg LeftLeg
      LeftLeg LeftFoot
      LeftFoot LeftToeBase
      Spine Spine_dum1 Spine_dum2 Spine_dum3
      Spine_dum1 RightShoulder
      Spine_dum2 LeftShoulder
      Spine_dum3 Head
      RightShoulder RightArm
      RightArm RightForeArm
      RightForeArm RightHand
      RightHand RightHand_dum1 RightHand_dum2
      RightHand_dum2 RightHandThumb1
      LeftShoulder LeftArm
      LeftArm LeftForeArm
      LeftForeArm LeftHand
      LeftHand LeftHand_dum1 LeftHand_dum2
      LeftHand_dum2 LeftHandThumb1
   end

# File created by Blade
# Date/Time:  Thu Jan 22 18:06:27 2015
# Frame Rate: 120.000 fps
#------------------------------------------------------
:FULLY-SPECIFIED
:DEGREES
384
root 0.704455 32.655257 -2.041109 11.212188 30.269605 9.177293
RightUpLeg -27.999418 16.900084 2.538239
RightLeg 123.619231 -0.000000 -0.000000
RightFoot 4.210602 -1.001132 3.919950
RightToeBase -2.926776 -0.000000 0.000000
LeftUpLeg -0.726985 -20.916788 -13.110871
LeftLeg -0.445845 -0.000000 0.000000
LeftFoot -4.964529 -7.178094 -4.150441
LeftToeBase 10.181654 -0.000000 -0.000000
Spine -8.844807 -15.853404 -6.292376
RightShoulder -21.515054 -20.258943 -21.686363
RightArm 12.665812 28.396622 48.297405
RightForeArm -10.506480 -0.000000 18.499925
RightHand 6.433627 0.000000 9.821449
RightHandThumb1 -24.326973 -0.000000 -32.862282
LeftShoulder -20.184532 -0.627430 25.303158
LeftArm 31.839991 -24.273012 -57.229477
LeftForeArm 3.996143 -0.000000 40.169404
LeftHand 0.240564 0.000000 36.427724
LeftHandThumb1 -26.253704 0.000000 33.147579
Head 16.436591 2.406104 -4.768397
385
root 0.701994 32.657279 -2.049255 11.209896 30.343108 9.152018
RightUpLeg -27.939591 16.903643 2.498150
RightLeg 123.489730 -0.000000 -0.000000
RightFoot 4.182026 -0.808616 3.667336
RightToeBase -3.155161 -0.000000 0.000000
LeftUpLeg -0.741627 -20.938398 -13.082443
LeftLeg -0.452096 -0.000000 0.000000
LeftFoot -4.935776 -7.180503 -4.103307
LeftToeBase 10.035533 -0.000000 -0.000000
Spine -8.819826 -15.846225 -6.289327
RightShoulder -21.556663 -20.246187 -21.635572
RightArm 12.671335 28.400086 48.343869
RightForeArm -10.591579 0.000000 18.415724
RightHand 6.353530 -0.000000 10.008619
RightHandThumb1 -24.326973 -0.000000 -32.862282
LeftShoulder -20.171257 -0.625104 25.322924
LeftArm 31.910022 -24.184267 -57.245602
LeftForeArm 3.979024 -0.000000 40.203122
LeftHand 0.191045 -0.000000 36.431567
LeftHandThumb1 -26.253704 0.000000 33.147579
Head 16.422332 2.329378 -4.658906
386
root 0.699769 32.657952 -2.057189 11.200336 30.405600 9.128987
RightUpLeg -27.879298 16.925885 2.445959
RightLeg 123.351007 -0.000000 -0.000000
RightFoot 4.123800 -0.704907 3.527219
RightToeBase -3.310028 -0.000000 0.000000
LeftUpLeg -0.749846 -20.932834 -13.063447
LeftLeg -0.450537 -0.000000 0.000000
LeftFoot -4.927109 -7.179168 -3.927189
LeftToeBase 9.917578 -0.000000 -0.000000
Spine -8.798457 -15.837643 -6.282229
RightShoulder -21.548570 -20.249877 -21.642005
RightArm 12.641283 28.392132 48.430143
RightForeArm -10.563043 0.000000 18.335871
RightHand 6.375256 0.000000 10.083451
RightHandThumb1 -24.326973 -0.000000 -32.862282
LeftShoulder -20.147674 -0.598512 25.320553
LeftArm 32.014027 -24.131562 -57.260624
LeftForeArm 3.983874 -0.000000 40.188522
LeftHand 0.167440 -0.000000 36.462619
LeftHandThumb1 -26.253704 0.000000 33.147579
Head 16.432837 2.270010 -4.594903
387
root 0.697464 32.658341 -2.064247 11.187996 30.446595 9.101116
RightUpLeg -27.823891 16.980858 2.390920
RightLeg 123.190386 -0.000000 -0.000000
RightFoot 4.038559 -0.604923 3.363407
RightToeBase -3.472662 -0.000000 0.000000
LeftUpLeg -0.747008 -20.970103 -13.042087
LeftLeg -0.473198 -0.000000 0.000000
LeftFoot -4.895700 -7.134902 -3.797017
LeftToeBase 9.694569 -0.000000 -0.000000
Spine -8.780643 -15.811072 -6.280664
RightShoulder -21.558477 -20.253597 -21.634147
RightArm 12.655365 28.391923 48.526129
RightForeArm -10.645124 -0.000000 18.220166
RightHand 6.392644 -0.000000 10.154438
RightHandThumb1 -24.326973 -0.000000 -32.862282
LeftShoulder -20.114145 -0.628614 25.356710
LeftArm 32.026976 -24.049499 -57.246521
LeftForeArm 3.974462 -0.000000 40.190727
LeftHand 0.173516 0.000000 36.496195
LeftHandThumb1 -26.253704 0.000000 33.147579
Head 16.446769 2.207506 -4.528795
388
root 0.693849 32.658811 -2.071043 11.171277 30.483210 9.077691
RightUpLeg -27.772848 17.056098 2.326499
RightLeg 122.994740 -0.000000 -0.000000
RightFoot 3.970251 -0.484923 3.174411
RightToeBase -4.330367 -0.000000 0.000000
LeftUpLeg -0.742101 -21.050652 -13.024310
LeftLeg -0.486277 -0.000000 0.000000
LeftFoot -4.886478 -7.039617 -3.653621
LeftToeBase 9.501563 -0.000000 -0.000000
Spine -8.751574 -15.808639 -6.287714
RightShoulder -21.550247 -20.250837 -21.623014
RightArm 12.681632 28.289598 48.598175
RightForeArm -10.491158 0.000000 18.066751
RightHand 6.448726 -0.000000 10.091682
RightHandThumb1 -24.326973 -0.000000 -32.862282
LeftShoulder -20.112763 -0.601345 25.369137
LeftArm 32.108532 -23.983109 -57.221192
LeftForeArm 3.947291 -0.000000 40.163860
LeftHand 0.115880 0.000000 36.508953
LeftHandThumb1 -26.253704 0.000000 33.147579
Head 16.449985 2.153394 -4.465470
389
root 0.690548 32.658554 -2.078421 11.163057 30.503040 9.052892
RightUpLeg -27.745361 17.159783 2.243228
RightLeg 122.768958 -0.000000 -0.000000
RightFoot 3.915742 -0.474419 3.103033
RightToeBase -4.271994 -0.000000 0.000000
LeftUpLeg -0.755290 -21.085934 -13.007332
LeftLeg -0.486233 -0.000000 0.000000
LeftFoot -4.883015 -6.969257 -3.471300
LeftToeBase 9.243954 -0.000000 -0.000000
Spine -8.745975 -15.784861 -6.291081
RightShoulder -21.542738 -20.296181 -21.617113
RightArm 12.736227 28.275820 48.705290
RightForeArm -10.505300 0.000000 17.960299
RightHand 6.514120 0.000000 10.294452
RightHandThumb1 -24.326973 -0.000000 -32.862282
LeftShoulder -20.089063 -0.625421 25.399991
LeftArm 32.137299 -23.905516 -57.180013
LeftForeArm 3.936345 -0.000000 40.121483
LeftHand 0.075406 -0.000000 36.566288
LeftHandThumb1 -26.253704 0.000000 33.147579
Head 16.489191 2.121927 -4.427615
